<svg width="1164" height="465" viewBox="0 0 1164 465" fill="none" xmlns="http://www.w3.org/2000/svg">
<g clip-path="url(#clip0_12_8)">
<rect width="1164" height="465" rx="40" fill="#3171FF"/>
<circle cx="943.743" cy="94.7429" r="202.743" fill="#3D7DFE"/>
<circle cx="1076.5" cy="89.5" r="132.5" fill="#4A8BFC"/>
<circle cx="1076.5" cy="407.5" r="132.5" fill="#4A8BFC"/>
<circle cx="16.5714" cy="16.5714" r="16.5714" transform="matrix(-1 0 0 1 741.143 273)" fill="#3D7DFE"/>
<circle cx="13" cy="13" r="13" transform="matrix(-1 0 0 1 751 226.143)" fill="#3D7DFE"/>
<circle cx="13" cy="13" r="13" transform="matrix(-1 0 0 1 589 204)" fill="#3D7DFE"/>
<circle cx="23.2" cy="23.2" r="23.2" transform="matrix(-1 0 0 1 774.4 313)" fill="#4A8BFC"/>
<circle cx="23.2" cy="23.2" r="23.2" transform="matrix(-1 0 0 1 635.4 222)" fill="#4A8BFC"/>
</g>
<defs>
<clipPath id="clip0_12_8">
<rect width="1164" height="465" rx="40" fill="white"/>
</clipPath>
</defs>
</svg>
