<svg width="42" height="42" viewBox="0 0 42 42" fill="none" xmlns="http://www.w3.org/2000/svg">
<g clip-path="url(#clip0_1_603)">
<path d="M0.901363 20.7486C0.900379 24.2775 1.82939 27.7231 3.5959 30.7601L0.732422 41.1367L11.4318 38.3523C14.3911 39.9513 17.7068 40.7891 21.0763 40.7893H21.0851C32.2082 40.7893 41.2626 31.806 41.2674 20.7644C41.2695 15.414 39.172 10.3828 35.3612 6.59757C31.551 2.81269 26.4835 0.727173 21.0843 0.724731C9.95991 0.724731 0.90612 9.70752 0.901527 20.7486" fill="url(#paint0_linear_1_603)"/>
<path d="M15.8625 12.0706C15.4712 11.2073 15.0593 11.1899 14.6872 11.1748C14.3824 11.1618 14.034 11.1627 13.686 11.1627C13.3376 11.1627 12.7716 11.2928 12.2931 11.8113C11.8142 12.3303 10.4646 13.5844 10.4646 16.1352C10.4646 18.6861 12.3366 21.1512 12.5975 21.4975C12.8588 21.8431 16.2114 27.2452 21.5211 29.3233C25.9339 31.0504 26.8319 30.7069 27.7896 30.6203C28.7475 30.534 30.8804 29.3665 31.3156 28.1558C31.7511 26.9453 31.7511 25.9077 31.6205 25.6908C31.4899 25.4748 31.1416 25.3451 30.6192 25.0859C30.0966 24.8266 27.5283 23.5723 27.0496 23.3992C26.5706 23.2263 26.2224 23.1401 25.874 23.6592C25.5257 24.1775 24.5253 25.3451 24.2204 25.6908C23.9158 26.0374 23.6109 26.0806 23.0886 25.8212C22.5659 25.5611 20.8835 25.0143 18.8876 23.2482C17.3346 21.8739 16.2862 20.1768 15.9814 19.6576C15.6767 19.1393 15.9488 18.8583 16.2107 18.6C16.4455 18.3677 16.7333 17.9946 16.9948 17.6919C17.2552 17.3892 17.3422 17.1731 17.5163 16.8274C17.6907 16.4813 17.6034 16.1785 17.473 15.9192C17.3422 15.6598 16.327 13.0957 15.8625 12.0706Z" fill="white"/>
</g>
<defs>
<linearGradient id="paint0_linear_1_603" x1="2027.48" y1="4041.92" x2="2027.48" y2="0.724731" gradientUnits="userSpaceOnUse">
<stop stop-color="#1FAF38"/>
<stop offset="1" stop-color="#60D669"/>
</linearGradient>
<clipPath id="clip0_1_603">
<rect width="42" height="42" fill="white"/>
</clipPath>
</defs>
</svg>
