<svg width="42" height="42" viewBox="0 0 42 42" fill="none" xmlns="http://www.w3.org/2000/svg">
<g clip-path="url(#clip0_1_600)">
<path d="M21 0C15.4317 0 10.0866 2.21386 6.15234 6.1507C2.21407 10.0891 0.00109092 15.4303 0 21C0 26.5673 2.21484 31.9125 6.15234 35.8493C10.0866 39.7861 15.4317 42 21 42C26.5683 42 31.9134 39.7861 35.8477 35.8493C39.7852 31.9125 42 26.5673 42 21C42 15.4327 39.7852 10.0875 35.8477 6.1507C31.9134 2.21386 26.5683 0 21 0Z" fill="url(#paint0_linear_1_600)"/>
<path d="M9.50573 20.7782C15.6285 18.1112 19.7104 16.3528 21.7514 15.5033C27.5854 13.0774 28.7962 12.6561 29.587 12.6418C29.7609 12.6391 30.1481 12.682 30.4007 12.8863C30.6107 13.0586 30.6698 13.2915 30.6993 13.4551C30.7256 13.6185 30.7617 13.9909 30.7321 14.2817C30.4171 17.6023 29.0489 25.6604 28.3532 29.3797C28.0612 30.9534 27.4804 31.481 26.9193 31.5325C25.6987 31.6447 24.7734 30.7266 23.5921 29.9526C21.7448 28.7408 20.7014 27.9868 18.9065 26.8045C16.8328 25.4382 18.1781 24.6872 19.3593 23.46C19.6678 23.1387 25.0424 18.2513 25.1442 17.808C25.1573 17.7526 25.1704 17.5458 25.0457 17.4369C24.9243 17.3276 24.7439 17.365 24.6126 17.3946C24.4256 17.4366 21.4757 19.3883 15.7532 23.2493C14.9165 23.8248 14.1585 24.1054 13.476 24.0906C12.7279 24.0745 11.2842 23.6667 10.2112 23.3182C8.8987 22.8907 7.85198 22.6646 7.94385 21.9384C7.98979 21.5604 8.51151 21.1736 9.50573 20.7782Z" fill="white"/>
</g>
<defs>
<linearGradient id="paint0_linear_1_600" x1="2100" y1="0" x2="2100" y2="4200" gradientUnits="userSpaceOnUse">
<stop stop-color="#2AABEE"/>
<stop offset="1" stop-color="#229ED9"/>
</linearGradient>
<clipPath id="clip0_1_600">
<rect width="42" height="42" fill="white"/>
</clipPath>
</defs>
</svg>
